<svg xmlns="http://www.w3.org/2000/svg" version="1.1" xmlns:xlink="http://www.w3.org/1999/xlink" xmlns:svgjs="http://svgjs.dev/svgjs" width="2000" height="1500" viewBox="0 0 2000 1500"><rect width="2000" height="1500" fill="#ffffff"></rect><g transform="matrix(0.75,0,0,0.75,249.090909090909,282.7536437246964)"><svg viewBox="0 0 396 247" data-background-color="#ffffff" preserveAspectRatio="xMidYMid meet" height="1247" width="2000" xmlns="http://www.w3.org/2000/svg" xmlns:xlink="http://www.w3.org/1999/xlink"><g id="tight-bounds" transform="matrix(1,0,0,1,0.2400000000000091,-0.09999999999999432)"><svg viewBox="0 0 395.52 247.2" height="247.2" width="395.52"><g><svg></svg></g><g><svg viewBox="0 0 395.52 247.2" height="247.2" width="395.52"><g transform="matrix(1,0,0,1,95.3668569201391,47.215199999999996)"><svg viewBox="0 0 204.78628615972178 152.7696" height="152.7696" width="204.78628615972178"><g><svg viewBox="0 0 204.78628615972178 152.7696" height="152.7696" width="204.78628615972178"><g><svg viewBox="0 0 244.43135999999996 182.34463740180132" height="152.7696" width="204.78628615972178"><g><svg viewBox="0 0 244.43135999999996 182.34463740180132" height="182.34463740180132" width="244.43135999999996"><g id="textblocktransform"><svg viewBox="0 0 244.43135999999996 182.34463740180132" height="182.34463740180132" width="244.43135999999996" id="textblock"><g><svg viewBox="0 0 244.43135999999996 98.34798433386837" height="98.34798433386837" width="244.43135999999996"><g transform="matrix(1,0,0,1,0,0)"><svg width="244.43135999999996" viewBox="1.95 -37 93.44 37.6" height="98.34798433386837" data-palette-color="#010c80"><path d="M22.8 0L20.1 0Q16.4 0 16.4-3.7L16.4-3.7 16.4-4.2 15.9-4.2Q15.25-1.85 13.53-0.63 11.8 0.6 9.4 0.6L9.4 0.6Q5.65 0.6 3.8-1.3 1.95-3.2 1.95-6.9L1.95-6.9Q1.95-10.5 4.33-12.6 6.7-14.7 11.75-14.7L11.75-14.7 16.4-14.7 16.4-17.55Q16.4-20.4 15.13-21.75 13.85-23.1 11.1-23.1L11.1-23.1Q8.85-23.1 7.48-22.13 6.1-21.15 5.1-19.3L5.1-19.3 2.85-21.4Q3.85-23.5 6.05-24.93 8.25-26.35 11.25-26.35L11.25-26.35Q15.65-26.35 17.93-24.23 20.2-22.1 20.2-17.95L20.2-17.95 20.2-3.35 22.8-3.35 22.8 0ZM10.35-2.7L10.35-2.7Q11.65-2.7 12.78-3.15 13.9-3.6 14.7-4.33 15.5-5.05 15.95-5.98 16.4-6.9 16.4-7.9L16.4-7.9 16.4-11.8 11.65-11.8Q8.65-11.8 7.28-10.8 5.9-9.8 5.9-7.9L5.9-7.9 5.9-6.5Q5.9-4.55 7.1-3.63 8.3-2.7 10.35-2.7ZM35 0L31.85 0Q29.8 0 28.87-0.93 27.95-1.85 27.95-3.9L27.95-3.9 27.95-37 31.75-37 31.75-3.35 35-3.35 35 0ZM44.1 0L40.3 0 40.3-25.8 44.1-25.8 44.1-21.6 44.6-21.6Q45.35-24 46.8-25.2 48.25-26.4 50.9-26.4L50.9-26.4Q53.3-26.4 54.97-25.23 56.65-24.05 57.5-21.6L57.5-21.6 58-21.6Q58.8-24 60.5-25.2 62.2-26.4 65-26.4L65-26.4Q68.3-26.4 70.3-24.05 72.3-21.7 72.3-16.8L72.3-16.8 72.3 0 68.5 0 68.5-16.55Q68.5-19.65 67.27-21.3 66.05-22.95 63.5-22.95L63.5-22.95Q61.25-22.95 59.72-21.55 58.2-20.15 58.2-17.6L58.2-17.6 58.2 0 54.4 0 54.4-16.55Q54.4-19.65 53.17-21.3 51.95-22.95 49.4-22.95L49.4-22.95Q47.15-22.95 45.62-21.55 44.1-20.15 44.1-17.6L44.1-17.6 44.1 0ZM86.79 0.6L86.79 0.6Q83.59 0.6 81.32-0.7 79.04-2 77.44-4.3L77.44-4.3 80.09-6.5Q81.44-4.6 83.02-3.6 84.59-2.6 86.79-2.6L86.79-2.6Q89.04-2.6 90.37-3.73 91.69-4.85 91.69-6.95L91.69-6.95Q91.69-8.65 90.84-9.7 89.99-10.75 87.69-11.15L87.69-11.15 85.74-11.5Q81.99-12.2 80.17-13.85 78.34-15.5 78.34-18.85L78.34-18.85Q78.34-20.8 78.94-22.23 79.54-23.65 80.64-24.58 81.74-25.5 83.27-25.93 84.79-26.35 86.59-26.35L86.59-26.35Q89.49-26.35 91.47-25.33 93.44-24.3 94.89-22.35L94.89-22.35 92.44-20.1Q91.59-21.3 90.19-22.23 88.79-23.15 86.59-23.15L86.59-23.15Q82.04-23.15 82.04-19L82.04-19Q82.04-17.1 83.02-16.23 83.99-15.35 86.19-14.95L86.19-14.95 88.14-14.6Q92.09-13.9 93.74-12.15 95.39-10.4 95.39-7.4L95.39-7.4Q95.39-3.65 93.22-1.53 91.04 0.6 86.79 0.6Z" opacity="1" transform="matrix(1,0,0,1,0,0)" fill="#010c80" class="wordmark-text-0" data-fill-palette-color="primary" id="text-0"></path></svg></g></svg></g><g transform="matrix(1,0,0,1,0,121.56558308347067)"><svg viewBox="0 0 244.43135999999996 60.77905431833065" height="60.77905431833065" width="244.43135999999996"><g transform="matrix(1,0,0,1,0,0)"><svg width="244.43135999999996" viewBox="1.75 -36.3 148 36.8" height="60.77905431833065" data-palette-color="#77d4fc"><path d="M23.35-23.85L23.35-12.05Q23.35-9.05 23.73-7.03 24.1-5 24.55-3.75L24.55-3.75Q25.1-2.25 25.75-1.4L25.75-1.4 21.3 0.4Q20.65-0.25 20.1-1.15L20.1-1.15Q19.65-1.95 19.25-3.08 18.85-4.2 18.75-5.75L18.75-5.75Q17.9-2.75 16.03-1.23 14.15 0.3 10.95 0.3L10.95 0.3Q8.6 0.3 6.88-0.58 5.15-1.45 4-3.08 2.85-4.7 2.3-7 1.75-9.3 1.75-12.1L1.75-12.1Q1.75-14.95 2.63-17.38 3.5-19.8 5.08-21.55 6.65-23.3 8.85-24.3 11.05-25.3 13.7-25.3L13.7-25.3Q15.2-25.3 16.82-25.08 18.45-24.85 19.85-24.6 21.25-24.35 22.23-24.13 23.2-23.9 23.35-23.85L23.35-23.85ZM11.9-3.7Q13.15-3.7 14.2-4.55 15.25-5.4 16.03-6.78 16.8-8.15 17.23-9.93 17.65-11.7 17.65-13.55L17.65-13.55 17.65-20.75Q17.15-20.9 16.15-21.1 15.15-21.3 14.35-21.3L14.35-21.3Q12.45-21.3 11.23-20.65 10-20 9.25-18.85 8.5-17.7 8.2-16.1 7.9-14.5 7.9-12.6L7.9-12.6Q7.9-10.85 8-9.25 8.1-7.65 8.53-6.4 8.95-5.15 9.75-4.42 10.55-3.7 11.9-3.7L11.9-3.7ZM52.07 0.2Q49.22 0.2 47.87-1.38 46.52-2.95 46.52-5.4L46.52-5.4 46.52-35.25 52.22-36.3 52.22-5.95Q52.22-4.8 52.67-4.35 53.12-3.9 53.97-3.9L53.97-3.9Q54.47-3.9 54.94-3.95 55.42-4 55.82-4.1L55.82-4.1Q56.27-4.2 56.62-4.3L56.62-4.3 57.32-0.7Q56.67-0.45 55.87-0.25L55.87-0.25Q55.17-0.05 54.22 0.08 53.27 0.2 52.07 0.2L52.07 0.2ZM111.23 0L105.58 0 105.58-16.3Q105.58-18.4 104.93-19.63 104.28-20.85 102.68-20.85L102.68-20.85Q101.73-20.85 100.76-20.33 99.78-19.8 98.98-18.8 98.18-17.8 97.68-16.4 97.18-15 97.18-13.3L97.18-13.3 97.18 0 91.53 0 91.53-16.3Q91.53-18.4 90.88-19.63 90.23-20.85 88.63-20.85L88.63-20.85Q87.63-20.85 86.66-20.28 85.68-19.7 84.91-18.6 84.13-17.5 83.66-15.93 83.18-14.35 83.18-12.4L83.18-12.4 83.18 0 77.48 0 77.48-12.6Q77.48-15.6 77.08-17.63 76.68-19.65 76.23-20.9L76.23-20.9Q75.68-22.35 75.03-23.25L75.03-23.25 79.53-25.05Q80.03-24.5 80.53-23.7L80.53-23.7Q80.93-23 81.33-21.98 81.73-20.95 81.98-19.65L81.98-19.65Q83.23-22.65 85.51-23.98 87.78-25.3 90.33-25.3L90.33-25.3Q92.88-25.3 94.31-24 95.73-22.7 96.43-20.65L96.43-20.65Q97.78-23.15 99.91-24.23 102.03-25.3 104.38-25.3L104.38-25.3Q106.33-25.3 107.66-24.68 108.98-24.05 109.76-22.93 110.53-21.8 110.88-20.23 111.23-18.65 111.23-16.7L111.23-16.7 111.23 0ZM141.55-25.5L141.55-25.5Q143-25.5 144.4-25.2 145.8-24.9 146.9-24.5L146.9-24.5Q148.2-24.05 149.3-23.55L149.3-23.55 147.6-19.65Q146.6-20.1 145.6-20.45L145.6-20.45Q144.75-20.75 143.72-21.03 142.7-21.3 141.7-21.3L141.7-21.3Q140.55-21.3 139.72-20.75 138.9-20.2 138.9-19.1L138.9-19.1Q138.9-16.25 143.05-14.65L143.05-14.65Q144.6-14.05 145.85-13.38 147.1-12.7 147.97-11.8 148.85-10.9 149.3-9.73 149.75-8.55 149.75-6.95L149.75-6.95Q149.75-5.55 149.17-4.2 148.6-2.85 147.47-1.8 146.35-0.75 144.72-0.13 143.1 0.5 141.05 0.5L141.05 0.5Q139.4 0.5 137.8 0.13 136.2-0.25 134.92-0.7 133.65-1.15 132.9-1.55L132.9-1.55 132.15-1.9 134-6.1 134.65-5.75Q135.3-5.35 136.3-4.9 137.3-4.45 138.45-4.08 139.6-3.7 140.55-3.7L140.55-3.7Q142.3-3.7 143.15-4.4 144-5.1 144-6.25L144-6.25Q144-7.55 143.07-8.63 142.15-9.7 140.3-10.4L140.3-10.4Q136.45-11.85 134.77-13.7 133.1-15.55 133.1-18.5L133.1-18.5Q133.1-19.9 133.75-21.18 134.4-22.45 135.52-23.43 136.65-24.4 138.2-24.95 139.75-25.5 141.55-25.5Z" opacity="1" transform="matrix(1,0,0,1,0,0)" fill="#77d4fc" class="slogan-text-1" data-fill-palette-color="secondary" id="text-1"></path></svg></g></svg></g></svg></g></svg></g></svg></g></svg></g></svg></g><g><path d="M225.993 0c68.262 0 123.6 55.338 123.6 123.6 0 68.262-55.338 123.6-123.6 123.6-34.781 0-66.207-14.367-88.667-37.489l5.257 0c21.579 20.906 50.992 33.774 83.41 33.774 66.21 0 119.885-53.674 119.885-119.885 0-66.21-53.674-119.885-119.885-119.885-32.418 0-61.832 12.868-83.41 33.774l-5.257 0c22.46-23.123 53.886-37.489 88.667-37.489z" fill="#010c80" stroke="transparent" data-fill-palette-color="tertiary"></path></g></svg></g><defs></defs></svg><rect width="395.52" height="247.2" fill="none" stroke="none" visibility="hidden"></rect></g></svg></g></svg>